<?xml version="1.0" encoding="utf-8"?>
<svg version="1.1" xmlns="http://www.w3.org/2000/svg" xmlns:xlink="http://www.w3.org/1999/xlink" x="0px" y="0px"
	 viewBox="0 0 151 65.5" style="enable-background:new 0 0 151 65.5;" xml:space="preserve">
<style type="text/css">
	.st0{fill:#6783B4;}
	.st1{fill:#9BC333;}
	.st2{fill:#FFFFFF;}
</style>
<g>
	<ellipse class="st0" cx="56.1" cy="4.6" rx="9.8" ry="3.5"/>
	<path class="st0" d="M56.1,10.5c-5.4,0-9.8-1.6-9.8-3.5c0,0.4,0,2,0,2.3c0,1.9,4.4,3.5,9.8,3.5s9.8-1.6,9.8-3.5c0-0.4,0-1.8,0-2.3
		C65.8,8.9,61.5,10.5,56.1,10.5z"/>
	<path class="st0" d="M56.1,14.4c-5.4,0-9.8-1.6-9.8-3.5c0,0.4,0,2,0,2.3c0,1.9,4.4,3.5,9.8,3.5s9.8-1.6,9.8-3.5c0-0.4,0-1.8,0-2.3
		C65.8,12.9,61.5,14.4,56.1,14.4z"/>
	<path class="st0" d="M56.1,18.3c-5.4,0-9.8-1.6-9.8-3.5c0,0.4,0,2,0,2.3c0,1.9,4.4,3.5,9.8,3.5s9.8-1.6,9.8-3.5c0-0.4,0-1.8,0-2.3
		C65.8,16.8,61.5,18.3,56.1,18.3z"/>
</g>
<g>
	<circle class="st1" cx="29.6" cy="36.3" r="28.5"/>
	<path class="st2" d="M17.1,13.7c0,0-1.9,1-3.6,2.8s-4.9,5.3-5.4,6c-0.4,0.8,0.4,1.5,1.2,2.2c0.8,0.7,2.2,0.6,2.2,1.4
		s-0.9,2.2-0.2,4.6c0.7,2.3,1.3,4.7,3.1,6.6s2.1,3.9,3.5,4.3c1.4,0.4,1.8,0.3,2.5,1.4c0.7,1.1,0.9,2.7,2.7,3.7s3.5,1,4.5,1.7
		c0.9,0.7,3.4,2.1,4.1,2.8s1.8,2,2.8,2.1c0.9,0.1,1.2,0.5,1,1.1c-0.2,0.6-1.3,2.2-1.4,3.1c-0.1,0.9-0.7,3.2-0.2,3.8
		c0.5,0.6,4.8-0.3,6.5-1.3c1.6-0.9,4.5-2.8,5.4-3.8c0.9-0.9,2.4-2.1,2.3-2.6c-0.1-0.5-1.3-2.7-2.7-3c-1.4-0.3-2.7,0.4-3.2,0.3
		c-0.5-0.2-1.3-1.4-2.6-1c-1.3,0.3-3.1,1.1-3.5,1.5s-1.9-0.1-1.9-0.1s-0.7-3.4-1.6-3.9c-0.9-0.5-2-0.9-1.7-1.7
		c0.3-0.8,0.8-1.2-0.1-1.6c-0.9-0.4-2.1,0.3-2.8,0c-0.7-0.3-1.1,1.5-2.1,0.3c-1-1.1-1.9-2.2-1.6-2.8c0.3-0.5,0.3-2.5,2.1-2.8
		s3.7-1.2,4.9-0.6c1.2,0.6,1.4,2.4,2.2,2.8s1.6,0.5,1.6-0.4c0.1-0.9-1.3-2.3-0.9-2.8c0.3-0.5,2.4-1.8,2.7-3.4c0.3-1.6,2-2.8,2.9-3.4
		c0.9-0.6,1.7-0.8,2.3-1.8c0.6-1-0.4-1.4,0.8-2.1c1.2-0.7,1.6-0.9,2.9-1.1c1.3-0.3,1.9-0.3,1.6-1.6c-0.3-1.2-2-2.2-2.8-2.9
		c-0.9-0.8-1.6-1.1-2.8-1.2c-1.3-0.1-2.2-0.6-2.7-1.2c-0.4-0.6-1.3-0.9-2.2-0.5c-0.9,0.4-1.6,0.6-1.6,1c0.1,0.4,0.3,0.8,0.7,1.4
		c0.3,0.6,0,1.3-0.7,1.8s0.5,2.5-0.6,2.1s-1.2-1.9-2.2-2.3c-0.9-0.4-2.2-0.2-3-0.6c-0.8-0.4-1.6-0.3-1.5-1.6
		c0.1-1.3,0.4-2.3,1.1-2.8c0.7-0.4,1.6-1.4,2.2-1.5s3.3,0.9,2.9-0.7s-0.2-2.8-1.5-2.2c-1.3,0.7-1.5,1.5-2.5,0.9
		c-1-0.5-1.4-1.7-2.2-1.6c-0.8,0.1-1.2-0.1-1.8,0.7c-0.5,0.8-2.1,1.6-2.6,1c-0.5-0.5-0.8-1-2.2-0.9S17.1,13.7,17.1,13.7z"/>
</g>
<g>
	<path d="M72.1,45.2L71,38.9l-0.4-2.7h0c-0.1,0.9-0.2,1.5-0.2,1.9s-0.5,2.8-1.2,7.1h-3.3l-2.2-10.9h2.6l1,6c0.1,0.7,0.2,1.6,0.3,2.9
		h0.1c0-0.3,0.1-0.9,0.1-1.6s0.1-1.2,0.2-1.4l1.1-6h3.3l1.1,6c0.1,0.6,0.2,1.6,0.3,2.9h0c0.1-1.2,0.2-2.1,0.3-2.9l1-6h2.5l-2.2,10.9
		H72.1z"/>
	<path d="M87,39.7c0,1.8-0.4,3.2-1.1,4.2s-1.8,1.5-3.1,1.5c-0.8,0-1.6-0.2-2.2-0.7s-1.1-1.1-1.5-2s-0.5-1.9-0.5-3
		c0-1.8,0.4-3.1,1.1-4.1s1.8-1.5,3.1-1.5c1.3,0,2.3,0.5,3.1,1.5S87,38,87,39.7z M81.2,39.7c0,1.1,0.1,2,0.4,2.6s0.6,0.9,1.2,0.9
		c1,0,1.6-1.1,1.6-3.4c0-1.1-0.1-2-0.4-2.6s-0.6-0.8-1.2-0.8c-0.5,0-0.9,0.3-1.2,0.8S81.2,38.6,81.2,39.7z"/>
	<path d="M93.5,34.1c0.3,0,0.6,0,0.9,0.1l-0.3,2.5c-0.2-0.1-0.4-0.1-0.7-0.1c-0.6,0-1.1,0.2-1.5,0.7s-0.5,1.2-0.5,2.2v5.6h-2.6V34.3
		H91l0.3,1.7h0.1c0.3-0.7,0.6-1.2,0.9-1.5S93,34.1,93.5,34.1z"/>
	<path d="M98.2,45.2h-2.6V30h2.6V45.2z"/>
	<path d="M103.2,45.4c-1,0-1.8-0.5-2.4-1.5s-0.9-2.4-0.9-4.1c0-1.8,0.3-3.2,0.8-4.2s1.3-1.5,2.3-1.5c0.5,0,0.9,0.1,1.3,0.4
		s0.7,0.7,1,1.2h0.2c-0.1-1-0.1-1.7-0.1-2.1V30h2.6v15.2h-1.9l-0.4-1.4h-0.1C105.1,44.8,104.3,45.4,103.2,45.4z M104,43.2
		c0.5,0,0.8-0.2,1.1-0.7s0.3-1.2,0.4-2.4v-0.3c0-1.3-0.1-2.2-0.3-2.7s-0.6-0.8-1.1-0.8c-0.5,0-0.8,0.3-1,0.9s-0.3,1.4-0.3,2.6
		s0.1,2,0.3,2.5S103.5,43.2,104,43.2z"/>
	<path d="M116,48.4h-6.9V47h6.9V48.4z"/>
	<path d="M119.9,45.4c-1,0-1.8-0.5-2.4-1.5s-0.9-2.4-0.9-4.1c0-1.8,0.3-3.2,0.8-4.2s1.3-1.5,2.3-1.5c0.5,0,0.9,0.1,1.3,0.4
		s0.7,0.7,1,1.2h0.2c-0.1-1-0.1-1.7-0.1-2.1V30h2.6v15.2h-1.9l-0.4-1.4h-0.1C121.8,44.8,121,45.4,119.9,45.4z M120.8,43.2
		c0.5,0,0.8-0.2,1.1-0.7s0.3-1.2,0.4-2.4v-0.3c0-1.3-0.1-2.2-0.3-2.7s-0.6-0.8-1.1-0.8c-0.5,0-0.8,0.3-1,0.9s-0.3,1.4-0.3,2.6
		s0.1,2,0.3,2.5S120.3,43.2,120.8,43.2z"/>
	<path d="M132.3,45.2l-0.5-1.5h-0.1c-0.4,0.6-0.8,1.1-1.2,1.3s-0.9,0.4-1.6,0.4c-0.8,0-1.4-0.3-1.9-0.9s-0.7-1.4-0.7-2.5
		c0-1.1,0.3-2,0.9-2.6s1.6-0.9,2.8-0.9l1.4-0.1v-0.8c0-1-0.4-1.5-1.3-1.5c-0.7,0-1.4,0.3-2.2,0.8l-0.9-1.8c1.1-0.7,2.3-1,3.5-1
		c1.2,0,2,0.3,2.6,1c0.6,0.7,0.9,1.6,0.9,2.8v7.3H132.3z M130.1,43.4c0.5,0,0.9-0.2,1.1-0.6s0.4-1,0.4-1.7v-0.9l-0.8,0
		c-0.6,0-1,0.2-1.3,0.5s-0.4,0.8-0.4,1.4C129.1,42.9,129.4,43.4,130.1,43.4z"/>
	<path d="M140.1,43.2c0.4,0,0.8-0.1,1.2-0.3v2c-0.4,0.3-1.1,0.4-1.9,0.4c-0.9,0-1.6-0.3-2.1-0.8s-0.7-1.4-0.7-2.5v-5.6h-1.1v-1.2
		l1.4-0.9l0.7-2.3h1.7v2.3h2v2.1h-2v5.7C139.2,42.8,139.5,43.2,140.1,43.2z"/>
	<path d="M148.1,45.2l-0.5-1.5h-0.1c-0.4,0.6-0.8,1.1-1.2,1.3s-0.9,0.4-1.6,0.4c-0.8,0-1.4-0.3-1.9-0.9s-0.7-1.4-0.7-2.5
		c0-1.1,0.3-2,0.9-2.6s1.6-0.9,2.8-0.9l1.4-0.1v-0.8c0-1-0.4-1.5-1.3-1.5c-0.7,0-1.4,0.3-2.2,0.8l-0.9-1.8c1.1-0.7,2.3-1,3.5-1
		c1.2,0,2,0.3,2.6,1s0.9,1.6,0.9,2.8v7.3H148.1z M145.9,43.4c0.5,0,0.9-0.2,1.1-0.6s0.4-1,0.4-1.7v-0.9l-0.8,0c-0.6,0-1,0.2-1.3,0.5
		s-0.4,0.8-0.4,1.4C144.9,42.9,145.2,43.4,145.9,43.4z"/>
</g>
</svg>
